<?xml version="1.0" encoding="utf-8"?>
<!-- Generator: Adobe Illustrator 28.3.0, SVG Export Plug-In . SVG Version: 6.00 Build 0)  -->
<svg version="1.2" baseProfile="tiny" xmlns="http://www.w3.org/2000/svg" xmlns:xlink="http://www.w3.org/1999/xlink" viewBox="0 0 100 100" xml:space="preserve">
    <path d="M84.33,10.26h-0.11c-16.19,0-32.38,0-48.56,0c-3.05,0-3.46,0.42-3.46,3.43v35.72c0,11.91,0,23.81,0.01,35.72
        c0,0.63-0.04,1.35,0.23,1.87c0.28,0.52,0.9,1.18,1.41,1.21c2.02,0.12,4.05,0.06,6.08,0c0.95-0.03,1.51-0.61,1.58-1.59
        c0.06-0.82,0.12-1.65,0.12-2.47c-0.01-10.18-0.02-20.35-0.03-30.53c0-2.09,0.58-2.59,2.64-2.48c1.35,0.08,2.7,0.1,4.05,0.14
        c4.39,0.15,8.78,0.28,13.16,0.45c2.21,0.09,4.42,0.28,6.63,0.36c1.5,0.06,2.07-0.37,2.45-1.64c0.76-2.54-0.43-4-3.24-3.9
        c-7.65,0.26-15.3,0.53-22.95,0.82c-2.3,0.08-2.74-0.3-2.74-2.55c0.01-9.58,0.03-19.16,0.04-28.73c0-0.26,0-0.53,0.02-0.79
        c0.06-0.74,0.41-1.19,1.21-1.2c0.41,0,0.83-0.03,1.24-0.01c10.99,0.39,21.98,0.78,32.97,1.16c2.81,0.1,5.63,0.17,8.44,0.25
        c0.87,0.02,1.54-0.26,1.8-1.19C88.05,11.62,87.08,10.28,84.33,10.26z"/>
    <path d="M84.21,86.53c0.79-0.8,1.61-1.58,2.38-2.4c0.24-0.26,0.39-0.61,0.58-0.91c-0.14-0.28-0.19-0.52-0.34-0.67
        c-0.97-1-1.9-2.03-2.97-2.91c-0.27-0.22-1.11-0.08-1.45,0.19c-0.9,0.73-1.66,1.62-2.5,2.43c-0.64,0.62-0.63,1.23-0.03,1.85
        c0.79,0.8,1.59,1.59,2.38,2.39C82.91,87.18,83.55,87.19,84.21,86.53z"/>
</svg>
